<?xml version="1.0" encoding="utf-8"?>
<!-- Generator: Adobe Illustrator 20.1.0, SVG Export Plug-In . SVG Version: 6.00 Build 0)  -->
<svg version="1.1" id="Layer_1" xmlns="http://www.w3.org/2000/svg" xmlns:xlink="http://www.w3.org/1999/xlink" x="0px" y="0px"
	 viewBox="0 0 400 564.3" style="enable-background:new 0 0 400 564.3;" xml:space="preserve">
<style type="text/css">
	.st0{fill:#FFFFFF;}
	.st1{fill:#0071BC;}
	.st2{fill:#29ABE2;}
	.st3{fill:#B3B3B3;}
	.st4{fill:#E6E6E6;}
</style>
<g>
	<g>
		<polygon class="st0" points="142,26 142,0 80,0 80,76 142,76 142,50 106,50 106,26 		"/>
		<polygon class="st0" points="230,0 168,0 168,26.7 193.9,50 168,50 168,76 230,76 230,50.7 206.5,26 230,26 		"/>
		<polygon class="st0" points="320,0 258,0 258,26.7 282.9,50 258,50 258,76 320,76 320,50.7 295.5,26 320,26 		"/>
	</g>
	<polygon class="st1" points="36.4,519 0,110.7 400,110.7 363.6,518.9 199.8,564.3 	"/>
	<polygon class="st2" points="200.3,529.6 332.5,493.2 363.5,144.7 200.3,144.7 	"/>
	<polygon class="st3" points="83.3,294.7 87.7,344.7 200.3,294.7 200.3,244.6 	"/>
	<polygon class="st4" points="325.1,191.1 200.3,244.6 200.3,294.7 320.8,241.1 	"/>
	<polygon class="st4" points="200.3,425.5 199.9,425.6 144.1,410.6 140.4,370.7 90.2,370.7 97.2,449.3 199.9,477.7 200.3,477.6 	"/>
	<polygon class="st0" points="200.3,294.7 200.3,344.7 261.5,344.7 255.9,410.1 200.3,425.6 200.3,477.7 302.7,449.2 316.2,294.7 	
		"/>
	<polygon class="st4" points="200.3,294.7 83.3,294.7 87.7,344.7 200.3,344.7 	"/>
	<polygon class="st4" points="200.3,241.1 200.3,191.1 199.8,191.1 74.4,191.1 78.9,241.1 	"/>
	<polygon class="st0" points="200.3,191.1 200.3,240.5 200.3,241.1 320.8,241.1 325.1,191.1 	"/>
</g>
</svg>
