<?xml version="1.0" encoding="utf-8"?>
<!-- Generator: Adobe Illustrator 20.1.0, SVG Export Plug-In . SVG Version: 6.00 Build 0)  -->
<svg version="1.1" id="Layer_1" xmlns="http://www.w3.org/2000/svg" xmlns:xlink="http://www.w3.org/1999/xlink" x="0px" y="0px"
	 viewBox="0 0 740.6 119" style="enable-background:new 0 0 740.6 119;" xml:space="preserve">
<style type="text/css">
	.st0{fill:#005EB7;}
	.st1{fill:#EF280A;}
	.st2{fill:#FFFFFF;}
</style>
<g>
	<g>
		<path class="st0" d="M285.1,45.2V62h13.6V70c-1.1,0.6-2.3,1.1-3.6,1.4c-1.4,0.3-3.2,0.4-5.4,0.4c-2.8,0-5.3-0.4-7.6-1.3
			c-2.3-0.9-4.3-2.2-5.9-3.8c-1.7-1.7-3-3.7-3.9-6c-0.9-2.3-1.4-4.9-1.4-7.7v-0.2c0-2.7,0.4-5.2,1.3-7.5c0.9-2.3,2.1-4.2,3.7-5.9
			c1.6-1.7,3.5-3,5.7-3.9c2.2-0.9,4.6-1.4,7.1-1.4c3.3,0,6.4,0.6,9.3,1.8c2.9,1.2,5.6,2.9,8.3,5.1l14.8-17.9
			c-4.3-3.8-9.2-6.7-14.6-8.8c-5.5-2.1-11.6-3.2-18.5-3.2c-6.2,0-12,1-17.3,3.1c-5.3,2.1-9.9,5-13.8,8.7c-3.9,3.7-7,8.1-9.2,13.1
			c-1.9,4.4-3,9.2-3.2,14.3l-15.9-38H202l-22.6,54V12.8h-27.6l-17,27.8l-17-27.8H90.3c8,7.2,13,17.6,13,29.2c0,11.6-5,22-13,29.2
			v4.4v4.6v2v9.7h25.8V52.7l18.3,28.1h0.4l18.3-28.1v39.2h15.6h10.8h17.5l4.1-10.6h27.7l4.2,10.6h28.7l-3.7-8.9
			c3.9,3.3,8.3,5.9,13.3,7.7c5.4,2,11.2,2.9,17.4,2.9c7.2,0,13.8-1.1,19.7-3.3c5.9-2.2,11-5,15.3-8.6V45.2H285.1z M207.7,62.5
			l7.2-19.2l7.2,19.2H207.7z M80.5,77.7l5.3,6.4c-2.4,1.9-5.1,3.6-8,5c-5.9,2.9-13.1,4.4-21.4,4.4c-6.6,0-12.6-1-18.1-3
			c-5.5-2-10.2-4.8-14.2-8.3c-4-3.5-7.1-7.8-9.3-12.9c-2.2-5.1-3.3-10.6-3.3-16.8v-0.3c0-5.7,1-11.1,3.1-16.1c2.1-5,5-9.4,8.7-13.1
			c3.2-3.2,6.8-5.7,11-7.7c-6.5,7-10.5,16.4-10.5,26.6c0,21.8,17.8,39.4,39.7,39.4C69.7,81.4,75.4,80.1,80.5,77.7"/>
		<path class="st1" d="M90.3,12.8v17.7c-1.3-2.3-2.9-4.5-4.6-6.5c-3.5-3.9-7.8-7.1-13.1-9.4C67.3,12.2,61,11,53.8,11
			c-6.2,0-11.9,1.1-17,3.2c-0.8,0.3-1.6,0.7-2.4,1.1c-6.5,7-10.5,16.4-10.5,26.7c0,21.8,17.8,39.4,39.7,39.4c6,0,11.7-1.3,16.9-3.7
			l-8-9.6c-1.6,1.2-3.3,2.1-4.9,2.8c-2.9,1.3-6.2,1.9-9.7,1.9c-4.6,0-8.5-1.1-11.7-3.2c-2.6-1.8-4.6-4.4-5.8-7.7h38.4h11.4v9.3
			c8-7.2,13-17.6,13-29.2C103.4,30.4,98.3,20,90.3,12.8 M39.5,45.1c0.9-4.1,2.5-7.4,4.8-9.8c2.5-2.6,5.7-3.9,9.6-3.9
			c4,0,7.3,1.3,9.9,3.9c2.5,2.4,4,5.7,4.6,9.8H39.5z"/>
	</g>
	<g>
		<path class="st2" d="M63.9,35.1c-2.6-2.6-6-4-10.1-4c-4,0-7.3,1.3-9.8,4c-2.4,2.5-4,5.8-4.9,10l-0.1,0.4h29.6l-0.1-0.4
			C67.9,40.9,66.3,37.5,63.9,35.1z M53.7,33.2c3.6,0,6.4,1.1,8.7,3.4c1.7,1.8,3,4,3.7,6.8H41.6c0.8-2.8,2.1-5.1,3.8-6.9
			C47.5,34.3,50.3,33.2,53.7,33.2z"/>
		<path class="st2" d="M207.1,62.9h15.4l-7.7-20.5L207.1,62.9z M210.1,60.8l4.7-12.5l4.7,12.5H210.1z"/>
		<path class="st2" d="M283.4,43.5v20.5h13.6V69c-0.7,0.3-1.4,0.5-2.2,0.7c-1.2,0.3-2.9,0.4-5.1,0.4c-2.6,0-4.9-0.4-7-1.2
			c-2.1-0.8-3.9-2-5.3-3.5c-1.5-1.5-2.7-3.3-3.5-5.4c-0.9-2.1-1.3-4.5-1.3-7.1v-0.2c0-2.5,0.4-4.8,1.2-6.9c0.8-2,1.9-3.8,3.3-5.3
			c1.4-1.5,3.1-2.7,5.1-3.5c2-0.8,4.1-1.3,6.4-1.3c3.1,0,6,0.6,8.6,1.7c2.7,1.1,5.3,2.8,7.8,4.8l1.4,1.1l17-20.6l-1.3-1.1
			c-4.4-3.9-9.5-7-15.2-9.2c-5.6-2.2-12.1-3.3-19.1-3.3c-6.4,0-12.5,1.1-18,3.2c-5.5,2.2-10.4,5.2-14.4,9c-4.1,3.8-7.3,8.5-9.6,13.8
			c-1.1,2.6-2,5.4-2.6,8.2l-13.7-32.9l-0.1-0.2h-28.6l-19.7,47.2V10.9h-30.4l-16,26.3l-16-26.3H88.4v13.7c-0.5-0.6-1-1.3-1.5-1.9
			c-3.6-4.1-8.3-7.5-13.8-9.9C67.6,10.4,61,9.1,53.6,9.1c-6.4,0-12.4,1.1-17.7,3.4c-5.4,2.2-10.1,5.3-14,9.2
			c-3.9,3.9-7,8.5-9.1,13.7c-2.1,5.2-3.2,10.9-3.2,16.8v0.3c0,6.4,1.2,12.3,3.5,17.5c2.3,5.3,5.6,9.9,9.7,13.6
			c4.1,3.7,9.1,6.6,14.8,8.7c5.6,2.1,11.9,3.1,18.7,3.1c8.6,0,16.1-1.5,22.2-4.6c2.9-1.4,5.7-3.2,8.3-5.2l1.4-1.1L72.6,65.8l-1.3,1
			c-1.6,1.1-3.1,2-4.6,2.6c-2.7,1.2-5.7,1.8-9,1.8c-4.3,0-7.9-1-10.7-2.9c-1.7-1.1-3-2.6-4-4.5h45.4v30.1h29.3V58.7l15.5,23.9
			l0.1,0.1h2.4l15.5-24.1v35.2h46.9l4.1-10.7h25.3l4.2,10.7h32.6l-2.3-5.6c2.7,1.7,5.6,3.1,8.7,4.2c5.6,2,11.6,3.1,18,3.1
			c7.4,0,14.2-1.1,20.3-3.4c6-2.2,11.3-5.2,15.8-8.9l0.6-0.5V43.5H283.4z M288.5,93.5c-6.1,0-11.9-1-17.3-2.9
			c-5-1.8-9.4-4.4-13.2-7.7l-0.5,0.4l3.6,8.5H233l-4.2-10.7h-28.2l-4.1,10.7h-43.4V51.7l-18.8,29h-0.1l-18.8-29v40.1H90.5V61.7H39.8
			l0.2,0.4c1.2,3.4,3.2,6.1,5.9,7.9c3.2,2.2,7.2,3.3,11.9,3.3c3.5,0,6.8-0.6,9.8-1.9c1.5-0.7,3.1-1.6,4.7-2.7l12.9,15.6
			c-2.5,1.9-5,3.5-7.7,4.8c-5.9,2.9-13.1,4.4-21.3,4.4c-6.5,0-12.6-1-18-3c-5.4-2-10.1-4.8-14.1-8.3c-3.9-3.5-7-7.8-9.2-12.8
			c-2.2-5-3.3-10.6-3.3-16.7v-0.3c0-5.7,1-11.1,3.1-16c2-5,5-9.4,8.7-13.1c3.7-3.7,8.2-6.7,13.3-8.8c5.1-2.1,10.8-3.2,16.9-3.2
			c7.1,0,13.4,1.2,18.7,3.5c5.3,2.3,9.7,5.5,13.1,9.4c1.7,2,3.3,4.2,4.6,6.5l0.6,1.1V13h27.1l17.1,28.2L151.9,13H179v53.3l0.6,0.1
			l22.5-54H228l15.9,38l0.6-0.1c0.2-5.1,1.3-9.9,3.2-14.3c2.2-5,5.2-9.4,9.1-13.1c3.9-3.7,8.5-6.6,13.8-8.6
			c5.2-2.1,11.1-3.1,17.3-3.1c6.8,0,13,1.1,18.4,3.2c5.3,2.1,10.1,5,14.3,8.6L306,40.5c-2.6-2.1-5.3-3.8-8.1-5
			c-2.9-1.2-6.1-1.8-9.4-1.8c-2.6,0-5,0.5-7.2,1.4c-2.2,1-4.2,2.3-5.8,4c-1.6,1.7-2.9,3.7-3.8,6c-0.9,2.3-1.3,4.9-1.3,7.6V53
			c0,2.8,0.5,5.5,1.4,7.8c1,2.4,2.3,4.4,4,6.1c1.7,1.7,3.7,3,6,3.9c2.3,0.9,4.9,1.4,7.7,1.4c2.3,0,4.1-0.2,5.5-0.5
			c1.4-0.3,2.6-0.8,3.7-1.4l0.2-0.1v-8.4h-13.6V45.5h37.7v36.2c-4.2,3.5-9.3,6.3-15.1,8.5C302.3,92.4,295.7,93.5,288.5,93.5z"/>
	</g>
</g>
<g>
	<path class="st2" d="M351.1,96c0.9-2.5,2-5.2,3.1-7.9c1.1-2.7,2.2-5.4,3.3-8c1.1-2.6,2.2-5.2,3.2-7.7c1.1-2.5,2-4.8,2.9-6.9
		c0.9-2.1,1.7-3.9,2.4-5.5c0.7-1.6,1.3-2.8,1.7-3.7c0.9-2,2-3.4,3.2-4.1c1.2-0.7,2.6-1.1,4.2-1.1c1.7,0,3,0.2,3.8,0.7
		c0.9,0.5,1.5,0.9,1.8,1.2c0.8,1.3,1.7,3.1,2.8,5.4c1.1,2.3,2.2,4.7,3.4,7.5c1.2,2.7,2.4,5.6,3.6,8.5s2.3,5.8,3.4,8.5s2,5.3,2.9,7.5
		c0.9,2.3,1.6,4.1,2.1,5.5H389c-0.3-0.9-0.8-2.2-1.4-3.8c-0.6-1.6-1.4-3.4-2.2-5.6h-21.1c-0.9,2.2-1.6,4.1-2.2,5.6s-1.1,2.8-1.5,3.8
		L351.1,96L351.1,96z M374.8,60.4c-0.2,0.4-0.6,1.2-1.1,2.4s-1.1,2.6-1.7,4.3c-0.7,1.7-1.4,3.5-2.2,5.5c-0.8,2-1.6,4-2.4,6h14.8
		c-0.8-2-1.6-4-2.4-6s-1.5-3.8-2.2-5.5c-0.7-1.7-1.3-3.1-1.8-4.3C375.3,61.7,375,60.9,374.8,60.4z"/>
	<path class="st2" d="M404.4,65.4c0.2-0.1,0.7-0.4,1.4-0.7c0.7-0.4,1.7-0.7,3-1.1c1.2-0.4,2.8-0.7,4.6-1c1.8-0.3,3.9-0.5,6.2-0.5
		c2.9,0,5.5,0.4,7.7,1.3c2.3,0.9,4.2,2.1,5.8,3.7c1.6,1.6,2.8,3.5,3.7,5.7c0.9,2.2,1.3,4.7,1.3,7.4c0,2.7-0.4,5-1.2,7
		c-0.8,2-1.9,3.7-3.3,5c-1.4,1.4-3,2.4-4.8,3.1s-3.8,1-5.8,1c-1.5,0-2.8-0.1-4-0.4c-1.1-0.3-2.1-0.6-2.9-1s-1.4-0.7-1.8-1.1
		s-0.7-0.6-0.8-0.7v15.8h-9V65.4H404.4z M428.9,79.3c0-1.3-0.2-2.6-0.6-3.8c-0.4-1.2-1-2.3-1.7-3.2c-0.8-0.9-1.7-1.7-2.9-2.3
		c-1.1-0.6-2.5-0.8-4-0.8c-2.1,0-3.6,0.2-4.5,0.5c-0.9,0.3-1.5,0.5-1.8,0.6V85c0.2,0.3,0.4,0.7,0.8,1.2c0.3,0.5,0.8,0.9,1.4,1.3
		s1.3,0.8,2.2,1c0.9,0.3,1.9,0.4,3.2,0.4c2.5,0,4.4-0.9,5.8-2.6C428.2,84.7,428.9,82.3,428.9,79.3z"/>
	<path class="st2" d="M446.2,65.4c0.2-0.1,0.7-0.4,1.4-0.7c0.7-0.4,1.7-0.7,3-1.1c1.2-0.4,2.8-0.7,4.6-1c1.8-0.3,3.9-0.5,6.2-0.5
		c2.9,0,5.5,0.4,7.7,1.3c2.3,0.9,4.2,2.1,5.8,3.7c1.6,1.6,2.8,3.5,3.7,5.7c0.9,2.2,1.3,4.7,1.3,7.4c0,2.7-0.4,5-1.2,7
		c-0.8,2-1.9,3.7-3.3,5c-1.4,1.4-3,2.4-4.8,3.1s-3.8,1-5.8,1c-1.5,0-2.8-0.1-4-0.4c-1.1-0.3-2.1-0.6-2.9-1s-1.4-0.7-1.8-1.1
		s-0.7-0.6-0.8-0.7v15.8h-9V65.4H446.2z M470.7,79.3c0-1.3-0.2-2.6-0.6-3.8c-0.4-1.2-1-2.3-1.7-3.2c-0.8-0.9-1.7-1.7-2.9-2.3
		c-1.1-0.6-2.5-0.8-4-0.8c-2.1,0-3.6,0.2-4.5,0.5c-0.9,0.3-1.5,0.5-1.8,0.6V85c0.2,0.3,0.4,0.7,0.8,1.2c0.3,0.5,0.8,0.9,1.4,1.3
		s1.3,0.8,2.2,1c0.9,0.3,1.9,0.4,3.2,0.4c2.5,0,4.4-0.9,5.8-2.6C470,84.7,470.7,82.3,470.7,79.3z"/>
	<path class="st2" d="M502,68.8c-2.5,0-4.3,0.3-5.2,0.9c-0.9,0.6-1.4,1.4-1.4,2.4c0,0.9,0.4,1.5,1.2,2c0.8,0.5,2.1,0.8,3.9,1.1
		l5.5,0.7c4,0.5,7,1.6,8.8,3.2s2.8,3.8,2.8,6.5c0,3.4-1.3,6.1-4,8.2c-2.6,2.1-6.6,3.1-11.8,3.1c-2.4,0-4.6-0.2-6.5-0.6
		s-3.5-0.8-4.9-1.3s-2.4-1-3.2-1.4c-0.8-0.5-1.3-0.8-1.4-0.9l3.5-6.1c0.1,0.1,0.5,0.4,1.2,0.7c0.7,0.4,1.5,0.8,2.6,1.2
		c1.1,0.4,2.4,0.8,3.9,1.1c1.5,0.3,3.1,0.5,4.9,0.5c2.3,0,3.9-0.3,4.9-0.8s1.4-1.3,1.4-2.4c0-1-0.4-1.7-1.2-2.2
		c-0.8-0.5-2.2-0.9-4.2-1.1l-4.3-0.5c-1.8-0.2-3.5-0.6-5-1s-2.7-1.1-3.8-1.9c-1-0.8-1.8-1.8-2.4-2.9c-0.6-1.2-0.8-2.6-0.8-4.2
		c0-1.5,0.3-2.8,0.8-4.2c0.5-1.3,1.4-2.4,2.5-3.4c1.2-1,2.7-1.7,4.6-2.3s4.2-0.9,6.9-0.9c3,0,5.4,0.2,7.3,0.6
		c1.8,0.4,3.1,0.8,3.9,1.2c2.3,1,3.5,2.3,3.5,4.1c0,1.1-0.3,2-0.9,2.7c-0.6,0.7-1.2,1.2-1.9,1.6c-0.1-0.1-0.4-0.3-0.8-0.7
		c-0.5-0.4-1.2-0.8-2.1-1.2s-2-0.8-3.4-1.2C505.4,69,503.8,68.8,502,68.8z"/>
	<path class="st2" d="M543.4,55.9c0-1.5,0.4-2.6,1.3-3.2c0.9-0.6,2.1-0.9,3.6-0.9c1.1,0,2,0.1,2.9,0.4c0.8,0.3,1.4,0.4,1.6,0.5v23.2
		c0,2.1,0.2,3.9,0.5,5.6s0.9,3.1,1.7,4.3c0.8,1.2,1.9,2.1,3.3,2.7c1.4,0.6,3.1,1,5.3,1c2.1,0,3.9-0.3,5.2-1c1.4-0.6,2.5-1.6,3.3-2.7
		c0.8-1.2,1.4-2.6,1.7-4.3c0.3-1.7,0.5-3.5,0.5-5.6v-20c0-1.5,0.4-2.6,1.3-3.2c0.9-0.6,2.1-0.9,3.6-0.9c1.1,0,2,0.1,2.9,0.4
		c0.8,0.3,1.4,0.4,1.6,0.5v24.2c0,6.9-1.7,12-5.1,15.3c-3.4,3.3-8.4,5-15,5s-11.6-1.7-15-5s-5.1-8.4-5.1-15.3L543.4,55.9L543.4,55.9
		z"/>
	<path class="st2" d="M593.9,55.9c0-1.5,0.4-2.6,1.3-3.2c0.9-0.6,2.1-0.9,3.6-0.9c1.1,0,2,0.1,2.9,0.4c0.8,0.3,1.4,0.4,1.6,0.5v43.4
		H594L593.9,55.9L593.9,55.9z"/>
	<path class="st2" d="M638.4,70.2c0.9-1,2.1-2.2,3.4-3.5c1.4-1.4,2.8-2.7,4.3-4.2c1.5-1.4,3-2.9,4.5-4.3c1.5-1.4,2.9-2.7,4.2-3.9
		c0.9-0.8,1.7-1.4,2.4-1.8c0.7-0.5,1.8-0.7,3.1-0.7c0.9,0,1.8,0.2,2.5,0.5s1.4,0.6,1.9,1c0.5,0.3,0.9,0.7,1.2,1s0.4,0.5,0.5,0.6
		c-0.6,0.5-1.5,1.2-2.5,2.2c-1,0.9-2.1,2-3.3,3.1s-2.4,2.3-3.7,3.5s-2.5,2.4-3.7,3.5s-2.2,2.2-3.2,3.2c-0.9,1-1.7,1.7-2.2,2.3
		c4,4.1,7.7,8,11.1,11.8c3.4,3.8,6.5,7.7,9.4,11.7h-11.5c-1.4-1.8-2.9-3.6-4.6-5.5c-1.7-1.9-3.4-3.8-5.1-5.6s-3.3-3.5-4.9-5
		c-1.6-1.5-2.9-2.8-4-3.8v20h-9.1V55.9c0-1.5,0.4-2.6,1.3-3.2c0.9-0.6,2.1-0.9,3.6-0.9c1.1,0,2,0.1,2.9,0.4c0.8,0.3,1.4,0.4,1.6,0.5
		L638.4,70.2L638.4,70.2z"/>
	<path class="st2" d="M674.6,55.9c0-1.5,0.4-2.6,1.3-3.2c0.9-0.6,2.1-0.9,3.6-0.9c1.1,0,2,0.1,2.9,0.4c0.8,0.3,1.4,0.4,1.6,0.5v43.4
		h-9.3L674.6,55.9L674.6,55.9z"/>
	<path class="st2" d="M725.5,51.8c1.6,0,2.8,0.3,3.4,1c0.6,0.7,1,1.7,1,3c0,1-0.1,1.9-0.4,2.6c-0.3,0.8-0.5,1.3-0.7,1.5h-14.4V96
		h-9.3V59.9h-10.2c-1.6,0-2.8-0.3-3.4-1c-0.6-0.7-1-1.7-1-3c0-1,0.1-1.9,0.4-2.6c0.3-0.8,0.5-1.3,0.7-1.5H725.5z"/>
</g>
</svg>
