<?xml version="1.0" encoding="utf-8"?>
<!-- Generator: Adobe Illustrator 20.1.0, SVG Export Plug-In . SVG Version: 6.00 Build 0)  -->
<svg version="1.1" id="Layer_1" xmlns="http://www.w3.org/2000/svg" xmlns:xlink="http://www.w3.org/1999/xlink" x="0px" y="0px"
	 viewBox="0 0 714.6 96" style="enable-background:new 0 0 714.6 96;" xml:space="preserve">
<style type="text/css">
	.st0{fill:#005EB7;}
	.st1{fill:#EF280A;}
</style>
<g>
	<g id="eMAG">
		<g id="eMAG_2_">
			<path class="st0" d="M275.5,34.4v17h13.7v8c-1.1,0.6-2.3,1.1-3.6,1.4c-1.4,0.3-3.2,0.4-5.5,0.4c-2.8,0-5.4-0.4-7.7-1.4
				c-2.3-0.9-4.3-2.2-6-3.9c-1.7-1.7-3-3.7-3.9-6c-0.9-2.4-1.4-4.9-1.4-7.7v-0.2c0-2.7,0.4-5.2,1.3-7.5c0.9-2.3,2.1-4.3,3.7-5.9
				c1.6-1.7,3.5-3,5.7-3.9c2.2-0.9,4.6-1.4,7.2-1.4c3.3,0,6.4,0.6,9.3,1.8c2.9,1.2,5.7,2.9,8.3,5.1l14.9-18
				c-4.3-3.8-9.2-6.8-14.7-8.9C291.2,1.1,285,0,278.1,0c-6.3,0-12.1,1-17.5,3.1c-5.4,2.1-10,5-13.9,8.7c-3.9,3.7-7,8.1-9.2,13.2
				c-1.9,4.5-3,9.3-3.2,14.4l-16-38.3h-26.4L169,55.5V1.7h-27.8l-17.1,28l-17.1-28H79.4C87.4,9,92.5,19.5,92.5,31.1
				c0,11.6-5.1,22.1-13.1,29.4V65v4.6v2.1v9.8h26V41.9l18.4,28.3h0.5l18.4-28.3v39.5h15.7H169h17.6l4.1-10.7h27.9l4.2,10.7h28.9
				l-3.8-9c3.9,3.3,8.3,5.9,13.4,7.7c5.4,2,11.2,3,17.5,3c7.3,0,13.9-1.1,19.8-3.3c5.9-2.2,11-5.1,15.4-8.6V34.4H275.5z M197.5,51.8
				l7.3-19.3l7.3,19.3H197.5z M69.4,67.1l5.4,6.5c-2.5,1.9-5.1,3.6-8,5c-6,2.9-13.2,4.4-21.6,4.4c-6.7,0-12.7-1-18.2-3
				c-5.5-2-10.3-4.8-14.3-8.4c-4-3.6-7.1-7.9-9.4-13C1.1,53.6,0,48,0,41.8v-0.3c0-5.8,1-11.2,3.1-16.2c2.1-5,5-9.4,8.8-13.2
				c3.2-3.2,6.9-5.8,11.1-7.8c-6.5,7.1-10.5,16.5-10.5,26.8c0,21.9,17.9,39.7,40,39.7C58.5,70.9,64.3,69.5,69.4,67.1"/>
			<path class="st1" d="M79.4,1.7v17.8C78,17.2,76.5,15,74.7,13c-3.5-4-7.9-7.1-13.2-9.5C56.1,1.2,49.8,0,42.5,0
				c-6.2,0-11.9,1.1-17.1,3.2c-0.8,0.3-1.6,0.7-2.4,1.1c-6.5,7.1-10.5,16.5-10.5,26.8c0,21.9,17.9,39.7,40,39.7
				c6.1,0,11.8-1.3,17-3.7l-8-9.7c-1.7,1.2-3.3,2.1-4.9,2.8c-3,1.3-6.2,1.9-9.7,1.9c-4.7,0-8.6-1.1-11.8-3.2
				c-2.7-1.8-4.6-4.4-5.8-7.8h38.7h11.5v9.4c8.1-7.3,13.1-17.7,13.1-29.4C92.5,19.5,87.4,9,79.4,1.7 M28.2,34.3
				c0.9-4.1,2.5-7.4,4.9-9.9c2.5-2.6,5.7-3.9,9.7-3.9c4,0,7.4,1.3,10,3.9c2.5,2.5,4,5.8,4.6,9.9H28.2z"/>
		</g>
	</g>
	<g>
		<path class="st0" d="M339.5,83.1c0.9-2.5,2-5.2,3.1-7.9c1.1-2.7,2.2-5.4,3.3-8c1.1-2.6,2.2-5.2,3.2-7.7c1.1-2.5,2-4.8,2.9-6.9
			c0.9-2.1,1.7-3.9,2.4-5.5c0.7-1.6,1.3-2.8,1.7-3.7c0.9-2,2-3.4,3.2-4.1c1.2-0.7,2.6-1.1,4.2-1.1c1.7,0,3,0.2,3.8,0.7
			c0.9,0.5,1.5,0.9,1.8,1.2c0.8,1.3,1.7,3.1,2.8,5.4c1.1,2.3,2.2,4.7,3.4,7.5c1.2,2.7,2.4,5.6,3.6,8.5c1.2,2.9,2.3,5.8,3.4,8.5
			c1.1,2.7,2,5.3,2.9,7.5c0.9,2.3,1.6,4.1,2.1,5.5h-9.9c-0.3-0.9-0.8-2.2-1.4-3.8c-0.6-1.6-1.4-3.4-2.2-5.6h-21.1
			c-0.9,2.2-1.6,4.1-2.2,5.6c-0.6,1.5-1.1,2.8-1.5,3.8H339.5z M363.2,47.5c-0.2,0.4-0.6,1.2-1.1,2.4c-0.5,1.2-1.1,2.6-1.7,4.3
			c-0.7,1.7-1.4,3.5-2.2,5.5c-0.8,2-1.6,4-2.4,6h14.8c-0.8-2-1.6-4-2.4-6s-1.5-3.8-2.2-5.5c-0.7-1.7-1.3-3.1-1.8-4.3
			C363.7,48.8,363.4,48,363.2,47.5z"/>
		<path class="st0" d="M392.8,52.5c0.2-0.1,0.7-0.4,1.4-0.7c0.7-0.4,1.7-0.7,3-1.1c1.2-0.4,2.8-0.7,4.6-1c1.8-0.3,3.9-0.5,6.2-0.5
			c2.9,0,5.5,0.4,7.7,1.3c2.3,0.9,4.2,2.1,5.8,3.7c1.6,1.6,2.8,3.5,3.7,5.7c0.9,2.2,1.3,4.7,1.3,7.4c0,2.7-0.4,5-1.2,7
			c-0.8,2-1.9,3.7-3.3,5c-1.4,1.4-3,2.4-4.8,3.1s-3.8,1-5.8,1c-1.5,0-2.8-0.1-4-0.4c-1.1-0.3-2.1-0.6-2.9-1
			c-0.8-0.4-1.4-0.7-1.8-1.1s-0.7-0.6-0.8-0.7V96h-9V52.5z M417.3,66.4c0-1.3-0.2-2.6-0.6-3.8c-0.4-1.2-1-2.3-1.7-3.2
			c-0.8-0.9-1.7-1.7-2.9-2.3c-1.1-0.6-2.5-0.8-4-0.8c-2.1,0-3.6,0.2-4.5,0.5c-0.9,0.3-1.5,0.5-1.8,0.6v14.7c0.2,0.3,0.4,0.7,0.8,1.2
			c0.3,0.5,0.8,0.9,1.4,1.3c0.6,0.4,1.3,0.8,2.2,1c0.9,0.3,1.9,0.4,3.2,0.4c2.5,0,4.4-0.9,5.8-2.6C416.6,71.8,417.3,69.4,417.3,66.4
			z"/>
		<path class="st0" d="M434.6,52.5c0.2-0.1,0.7-0.4,1.4-0.7c0.7-0.4,1.7-0.7,3-1.1c1.2-0.4,2.8-0.7,4.6-1c1.8-0.3,3.9-0.5,6.2-0.5
			c2.9,0,5.5,0.4,7.7,1.3c2.3,0.9,4.2,2.1,5.8,3.7c1.6,1.6,2.8,3.5,3.7,5.7c0.9,2.2,1.3,4.7,1.3,7.4c0,2.7-0.4,5-1.2,7
			c-0.8,2-1.9,3.7-3.3,5c-1.4,1.4-3,2.4-4.8,3.1s-3.8,1-5.8,1c-1.5,0-2.8-0.1-4-0.4c-1.1-0.3-2.1-0.6-2.9-1
			c-0.8-0.4-1.4-0.7-1.8-1.1s-0.7-0.6-0.8-0.7V96h-9V52.5z M459.1,66.4c0-1.3-0.2-2.6-0.6-3.8c-0.4-1.2-1-2.3-1.7-3.2
			c-0.8-0.9-1.7-1.7-2.9-2.3c-1.1-0.6-2.5-0.8-4-0.8c-2.1,0-3.6,0.2-4.5,0.5c-0.9,0.3-1.5,0.5-1.8,0.6v14.7c0.2,0.3,0.4,0.7,0.8,1.2
			c0.3,0.5,0.8,0.9,1.4,1.3c0.6,0.4,1.3,0.8,2.2,1c0.9,0.3,1.9,0.4,3.2,0.4c2.5,0,4.4-0.9,5.8-2.6C458.4,71.8,459.1,69.4,459.1,66.4
			z"/>
		<path class="st0" d="M490.4,55.9c-2.5,0-4.3,0.3-5.2,0.9c-0.9,0.6-1.4,1.4-1.4,2.4c0,0.9,0.4,1.5,1.2,2c0.8,0.5,2.1,0.8,3.9,1.1
			l5.5,0.7c4,0.5,7,1.6,8.8,3.2c1.8,1.6,2.8,3.8,2.8,6.5c0,3.4-1.3,6.1-4,8.2c-2.6,2.1-6.6,3.1-11.8,3.1c-2.4,0-4.6-0.2-6.5-0.6
			c-1.9-0.4-3.5-0.8-4.9-1.3c-1.4-0.5-2.4-1-3.2-1.4c-0.8-0.5-1.3-0.8-1.4-0.9l3.5-6.1c0.1,0.1,0.5,0.4,1.2,0.7
			c0.7,0.4,1.5,0.8,2.6,1.2c1.1,0.4,2.4,0.8,3.9,1.1c1.5,0.3,3.1,0.5,4.9,0.5c2.3,0,3.9-0.3,4.9-0.8c1-0.5,1.4-1.3,1.4-2.4
			c0-1-0.4-1.7-1.2-2.2c-0.8-0.5-2.2-0.9-4.2-1.1l-4.3-0.5c-1.8-0.2-3.5-0.6-5-1s-2.7-1.1-3.8-1.9c-1-0.8-1.8-1.8-2.4-2.9
			c-0.6-1.2-0.8-2.6-0.8-4.2c0-1.5,0.3-2.8,0.8-4.2c0.5-1.3,1.4-2.4,2.5-3.4c1.2-1,2.7-1.7,4.6-2.3s4.2-0.9,6.9-0.9
			c3,0,5.4,0.2,7.3,0.6c1.8,0.4,3.1,0.8,3.9,1.2c2.3,1,3.5,2.3,3.5,4.1c0,1.1-0.3,2-0.9,2.7c-0.6,0.7-1.2,1.2-1.9,1.6
			c-0.1-0.1-0.4-0.3-0.8-0.7c-0.5-0.4-1.2-0.8-2.1-1.2c-0.9-0.4-2-0.8-3.4-1.2C493.8,56.1,492.2,55.9,490.4,55.9z"/>
		<path class="st0" d="M529.3,43c0-1.5,0.4-2.6,1.3-3.2c0.9-0.6,2.1-0.9,3.6-0.9c1.1,0,2,0.1,2.9,0.4c0.8,0.3,1.4,0.4,1.6,0.5V63
			c0,2.1,0.2,3.9,0.5,5.6c0.3,1.7,0.9,3.1,1.7,4.3c0.8,1.2,1.9,2.1,3.3,2.7c1.4,0.6,3.1,1,5.3,1c2.1,0,3.9-0.3,5.2-1
			c1.4-0.6,2.5-1.6,3.3-2.7c0.8-1.2,1.4-2.6,1.7-4.3c0.3-1.7,0.5-3.5,0.5-5.6V43c0-1.5,0.4-2.6,1.3-3.2c0.9-0.6,2.1-0.9,3.6-0.9
			c1.1,0,2,0.1,2.9,0.4c0.8,0.3,1.4,0.4,1.6,0.5V64c0,6.9-1.7,12-5.1,15.3c-3.4,3.3-8.4,5-15,5c-6.6,0-11.6-1.7-15-5
			c-3.4-3.3-5.1-8.4-5.1-15.3V43z"/>
		<path class="st0" d="M579.8,43c0-1.5,0.4-2.6,1.3-3.2c0.9-0.6,2.1-0.9,3.6-0.9c1.1,0,2,0.1,2.9,0.4c0.8,0.3,1.4,0.4,1.6,0.5v43.4
			h-9.3V43z"/>
		<path class="st0" d="M624.3,57.3c0.9-1,2.1-2.2,3.4-3.5c1.4-1.4,2.8-2.7,4.3-4.2c1.5-1.4,3-2.9,4.5-4.3c1.5-1.4,2.9-2.7,4.2-3.9
			c0.9-0.8,1.7-1.4,2.4-1.8c0.7-0.5,1.8-0.7,3.1-0.7c0.9,0,1.8,0.2,2.5,0.5c0.7,0.3,1.4,0.6,1.9,1c0.5,0.3,0.9,0.7,1.2,1
			c0.3,0.3,0.4,0.5,0.5,0.6c-0.6,0.5-1.5,1.2-2.5,2.2c-1,0.9-2.1,2-3.3,3.1c-1.2,1.1-2.4,2.3-3.7,3.5c-1.3,1.2-2.5,2.4-3.7,3.5
			c-1.2,1.1-2.2,2.2-3.2,3.2c-0.9,1-1.7,1.7-2.2,2.3c4,4.1,7.7,8,11.1,11.8c3.4,3.8,6.5,7.7,9.4,11.7h-11.5
			c-1.4-1.8-2.9-3.6-4.6-5.5c-1.7-1.9-3.4-3.8-5.1-5.6s-3.3-3.5-4.9-5c-1.6-1.5-2.9-2.8-4-3.8v20H615V43c0-1.5,0.4-2.6,1.3-3.2
			c0.9-0.6,2.1-0.9,3.6-0.9c1.1,0,2,0.1,2.9,0.4c0.8,0.3,1.4,0.4,1.6,0.5V57.3z"/>
		<path class="st0" d="M660.5,43c0-1.5,0.4-2.6,1.3-3.2c0.9-0.6,2.1-0.9,3.6-0.9c1.1,0,2,0.1,2.9,0.4c0.8,0.3,1.4,0.4,1.6,0.5v43.4
			h-9.3V43z"/>
		<path class="st0" d="M711.4,38.9c1.6,0,2.8,0.3,3.4,1c0.6,0.7,1,1.7,1,3c0,1-0.1,1.9-0.4,2.6c-0.3,0.8-0.5,1.3-0.7,1.5h-14.4v36.1
			h-9.3V47h-10.2c-1.6,0-2.8-0.3-3.4-1c-0.6-0.7-1-1.7-1-3c0-1,0.1-1.9,0.4-2.6c0.3-0.8,0.5-1.3,0.7-1.5H711.4z"/>
	</g>
</g>
</svg>
